<svg width="140" height="140" viewBox="0 0 140 140" fill="none" xmlns="http://www.w3.org/2000/svg">
<mask id="mask0_554_19" style="mask-type:alpha" maskUnits="userSpaceOnUse" x="0" y="0" width="140" height="140">
<rect width="140" height="140" fill="#D9D9D9"/>
</mask>
<g mask="url(#mask0_554_19)">
<path d="M127.604 60.229C127.896 61.8818 128.09 63.5103 128.188 65.1144C128.285 66.7186 128.333 68.3471 128.333 69.9998C128.333 78.0693 126.802 85.6526 123.74 92.7498C120.677 99.8471 116.521 106.021 111.271 111.271C106.021 116.521 99.8473 120.677 92.7501 123.739C85.6529 126.802 78.0695 128.333 70.0001 128.333C61.9306 128.333 54.3473 126.802 47.2501 123.739C40.1529 120.677 33.9792 116.521 28.7292 111.271C23.4792 106.021 19.323 99.8471 16.2605 92.7498C13.198 85.6526 11.6667 78.0693 11.6667 69.9998C11.6667 61.9304 13.198 54.3471 16.2605 47.2498C19.323 40.1526 23.4792 33.979 28.7292 28.729C33.9792 23.479 40.1529 19.3228 47.2501 16.2603C54.3473 13.1978 61.9306 11.6665 70.0001 11.6665C74.9584 11.6665 79.7466 12.2741 84.3647 13.4894C88.9827 14.7047 93.3334 16.3818 97.4167 18.5207C98.8751 19.2984 99.7744 20.4894 100.115 22.0936C100.455 23.6978 100.09 25.1804 99.0209 26.5415C98.0487 27.8054 96.7848 28.6318 95.2292 29.0207C93.6737 29.4096 92.2154 29.2151 90.8542 28.4373C87.7431 26.7846 84.4133 25.5207 80.8647 24.6457C77.3161 23.7707 73.6945 23.3332 70.0001 23.3332C57.0695 23.3332 46.0591 27.8783 36.9688 36.9686C27.8786 46.0589 23.3334 57.0693 23.3334 69.9998C23.3334 82.9304 27.8786 93.9408 36.9688 103.031C46.0591 112.121 57.0695 116.666 70.0001 116.666C82.9306 116.666 93.9411 112.121 103.031 103.031C112.122 93.9408 116.667 82.9304 116.667 69.9998C116.667 68.7359 116.618 67.4964 116.521 66.2811C116.424 65.0658 116.278 63.8262 116.083 62.5623C115.889 61.2012 116.108 59.9373 116.74 58.7707C117.372 57.604 118.271 56.6804 119.438 55.9998C121.09 55.0276 122.767 55.0033 124.469 55.9269C126.17 56.8505 127.215 58.2846 127.604 60.229ZM57.7501 92.7498L40.9792 75.979C39.9098 74.9096 39.3994 73.5728 39.448 71.9686C39.4966 70.3644 40.0556 69.0276 41.1251 67.9582C42.1945 66.8887 43.5556 66.354 45.2084 66.354C46.8612 66.354 48.2223 66.8887 49.2917 67.9582L61.8334 80.4998L116.229 25.9582C117.299 24.8887 118.635 24.3783 120.24 24.4269C121.844 24.4755 123.181 25.0346 124.25 26.104C125.32 27.1734 125.854 28.5346 125.854 30.1873C125.854 31.8401 125.32 33.2012 124.25 34.2707L65.9167 92.7498C64.8473 93.8193 63.4862 94.354 61.8334 94.354C60.1806 94.354 58.8195 93.8193 57.7501 92.7498Z" fill="#DBF1E7"/>
</g>
</svg>
