<svg width="20" height="20" viewBox="0 0 20 20" fill="none" xmlns="http://www.w3.org/2000/svg">
<mask id="mask0_563_13" style="mask-type:alpha" maskUnits="userSpaceOnUse" x="0" y="0" width="20" height="20">
<rect width="20" height="20" fill="#D9D9D9"/>
</mask>
<g mask="url(#mask0_563_13)">
<path d="M5.83331 17.5C5.37498 17.5 4.98262 17.3368 4.65623 17.0104C4.32984 16.684 4.16665 16.2917 4.16665 15.8333V5C3.93054 5 3.73262 4.92014 3.5729 4.76042C3.41317 4.60069 3.33331 4.40278 3.33331 4.16667C3.33331 3.93056 3.41317 3.73264 3.5729 3.57292C3.73262 3.41319 3.93054 3.33333 4.16665 3.33333H7.49998C7.49998 3.09722 7.57984 2.89931 7.73956 2.73958C7.89929 2.57986 8.0972 2.5 8.33331 2.5H11.6666C11.9028 2.5 12.1007 2.57986 12.2604 2.73958C12.4201 2.89931 12.5 3.09722 12.5 3.33333H15.8333C16.0694 3.33333 16.2673 3.41319 16.4271 3.57292C16.5868 3.73264 16.6666 3.93056 16.6666 4.16667C16.6666 4.40278 16.5868 4.60069 16.4271 4.76042C16.2673 4.92014 16.0694 5 15.8333 5V15.8333C15.8333 16.2917 15.6701 16.684 15.3437 17.0104C15.0173 17.3368 14.625 17.5 14.1666 17.5H5.83331ZM5.83331 5V15.8333H14.1666V5H5.83331ZM7.49998 13.3333C7.49998 13.5694 7.57984 13.7674 7.73956 13.9271C7.89929 14.0868 8.0972 14.1667 8.33331 14.1667C8.56942 14.1667 8.76734 14.0868 8.92706 13.9271C9.08679 13.7674 9.16665 13.5694 9.16665 13.3333V7.5C9.16665 7.26389 9.08679 7.06597 8.92706 6.90625C8.76734 6.74653 8.56942 6.66667 8.33331 6.66667C8.0972 6.66667 7.89929 6.74653 7.73956 6.90625C7.57984 7.06597 7.49998 7.26389 7.49998 7.5V13.3333ZM10.8333 13.3333C10.8333 13.5694 10.9132 13.7674 11.0729 13.9271C11.2326 14.0868 11.4305 14.1667 11.6666 14.1667C11.9028 14.1667 12.1007 14.0868 12.2604 13.9271C12.4201 13.7674 12.5 13.5694 12.5 13.3333V7.5C12.5 7.26389 12.4201 7.06597 12.2604 6.90625C12.1007 6.74653 11.9028 6.66667 11.6666 6.66667C11.4305 6.66667 11.2326 6.74653 11.0729 6.90625C10.9132 7.06597 10.8333 7.26389 10.8333 7.5V13.3333Z" fill="#E45C5C"/>
</g>
</svg>
