<svg width="16" height="16" viewBox="0 0 16 16" fill="none" xmlns="http://www.w3.org/2000/svg">
<path d="M6.36689 11.9333C6.25288 11.9333 6.14285 11.9131 6.03681 11.8728C5.93077 11.8325 5.835 11.7695 5.74949 11.684L2.88282 8.81737C2.71663 8.65118 2.63632 8.4426 2.64187 8.19163C2.64743 7.94067 2.7333 7.73209 2.89949 7.5659C3.06568 7.39971 3.27462 7.31662 3.5263 7.31662C3.778 7.31662 3.98694 7.39971 4.15312 7.5659L6.36689 9.77967L11.8473 4.29923C12.0135 4.13304 12.2221 4.04838 12.4731 4.04525C12.724 4.04211 12.9357 4.12677 13.1082 4.29923C13.2744 4.46542 13.3575 4.67557 13.3575 4.92968C13.3575 5.18378 13.2744 5.39393 13.1082 5.56012L6.98429 11.684C6.89878 11.7695 6.80301 11.8325 6.69697 11.8728C6.59093 11.9131 6.4809 11.9333 6.36689 11.9333Z" fill="#fff"/>
</svg>
