<svg width="20" height="21" viewBox="0 0 20 21" fill="none" xmlns="http://www.w3.org/2000/svg">
<mask id="mask0_668_153" style="mask-type:alpha" maskUnits="userSpaceOnUse" x="0" y="0" width="20" height="21">
<rect y="0.5" width="20" height="20" fill="#D9D9D9"/>
</mask>
<g mask="url(#mask0_668_153)">
<path d="M9.23596 5.10419L9.99935 6.00638L10.7627 5.10419C11.128 4.67252 11.5698 4.33175 12.0978 4.07897C12.6134 3.83214 13.16 3.70825 13.7493 3.70825C14.8059 3.70825 15.6368 4.05157 16.3131 4.72786C16.9894 5.40415 17.3327 6.23502 17.3327 7.29159C17.3327 8.61598 16.8518 9.85145 15.8131 11.0245C14.6609 12.3259 13.3481 13.6393 11.8728 14.9643L11.8728 14.9643L11.8673 14.9693L10.4506 16.261L10.4501 16.2614C10.3139 16.3857 10.1791 16.4374 9.99935 16.4374C9.81959 16.4374 9.68476 16.3857 9.54862 16.2614L8.11194 14.9497C8.11191 14.9497 8.11188 14.9496 8.11184 14.9496C6.66126 13.6222 5.35519 12.3089 4.1923 11.01C3.14873 9.84435 2.66602 8.6139 2.66602 7.29159C2.66602 6.23502 3.00933 5.40415 3.68562 4.72786C4.36192 4.05157 5.19278 3.70825 6.24935 3.70825C6.83866 3.70825 7.38527 3.83214 7.90089 4.07897C8.42891 4.33175 8.8707 4.67252 9.23596 5.10419Z" stroke="#019852" stroke-width="2"/>
</g>
</svg>
