<svg width="191" height="40" viewBox="0 0 191 40" fill="none" xmlns="http://www.w3.org/2000/svg">
<path fill-rule="evenodd" clip-rule="evenodd" d="M5.88734 14.4898C4.95259 13.6343 4.31431 12.246 4.18921 10.0034C4.16358 9.54394 4.54322 9.16544 5.00339 9.17353C6.39932 9.19794 7.46835 9.29344 8.28472 9.53419C8.63454 8.62711 9.33237 7.77058 10.3781 6.98808C10.6475 6.78653 11.0193 6.78653 11.2886 6.98808C12.343 7.77699 13.0435 8.64119 13.3905 9.55653C14.2312 9.27394 15.3088 9.19153 16.6655 9.17203C17.1257 9.16544 17.5032 9.54394 17.4775 10.0034C17.3525 12.246 16.7142 13.6343 15.7795 14.4897C16.2359 14.8297 16.5005 15.4003 16.4034 16.0172C16.1725 17.4834 15.7739 19.7414 15.1467 22.5001H10V24.1668H14.7539C14.1281 26.7297 13.32 29.6296 12.2895 32.6743C11.8036 34.1096 9.86321 34.1096 9.37737 32.6743C8.97279 31.4789 8.60246 30.3059 8.26397 29.1668H10V27.5001H7.7841C6.99601 24.6739 6.40938 22.1087 5.98324 20.0001H9.16671V18.3334H5.66082C5.49391 17.4296 5.3631 16.6497 5.26349 16.0172C5.16634 15.4003 5.43094 14.8297 5.88734 14.4898ZM11.8321 10.1473L12.4008 11.6475L13.9216 11.1363C14.341 10.9954 14.9083 10.9112 15.7165 10.8689C15.4691 12.4789 14.873 13.1589 14.3295 13.5104C13.5533 14.0124 12.4223 14.1652 10.8583 14.1668H10.8085C9.24454 14.1652 8.11348 14.0124 7.33722 13.5104C6.79432 13.1593 6.19878 12.4802 5.95102 10.8734C6.78497 10.919 7.37855 11.0046 7.81326 11.1328L9.28687 11.5674L9.83971 10.134C9.99862 9.72211 10.3055 9.25969 10.8334 8.77219C11.3669 9.26486 11.6746 9.73194 11.8321 10.1473Z" fill="#019852"/>
<path fill-rule="evenodd" clip-rule="evenodd" d="M28.0893 11.4226C26.4452 13.0667 26.285 15.3621 27.209 17.5229C31.2546 14.8742 35.8333 18.1499 35.8333 23.3334C35.8333 27.9357 31.7293 31.6667 26.6667 31.6667C21.6041 31.6667 17.5 27.9357 17.5 23.3334C17.5 18.5065 21.4705 15.3339 25.2836 17.0591C24.6325 14.7253 24.9696 12.1852 26.9108 10.2441L28.0893 11.4226ZM33.3084 25.2021C33.4201 24.7556 33.1486 24.3032 32.7021 24.1916C32.2556 24.08 31.8032 24.3514 31.6916 24.7979C31.3495 26.166 30.3327 27.1829 28.9646 27.5249C28.5181 27.6366 28.2466 28.089 28.3583 28.5355C28.4698 28.982 28.9223 29.2535 29.3688 29.1418C31.334 28.6505 32.8172 27.1674 33.3084 25.2021Z" fill="#019852"/>
<path d="M28.3335 14.9999C30.8335 14.9999 32.5002 13.3333 32.5002 10.8333C30.0002 10.8333 28.3335 12.4999 28.3335 14.9999Z" fill="#019852"/>
<path d="M50.3818 26.6934C51.2783 26.6934 51.7969 26.1484 51.7969 25.1992V18.5811H51.8672L54.6797 25.5596C54.9082 26.1572 55.3125 26.4297 55.9277 26.4297C56.543 26.4297 56.9209 26.1572 57.1582 25.5596L59.9795 18.5811H60.041V25.1992C60.041 26.1484 60.5596 26.6934 61.4561 26.6934C62.3613 26.6934 62.8799 26.1484 62.8799 25.1992V15.7158C62.8799 14.3799 62.124 13.624 60.7969 13.624C59.6631 13.624 59.0566 14.0811 58.5908 15.2676L55.9541 21.9648H55.8838L53.2383 15.2676C52.7812 14.0811 52.1748 13.624 51.0498 13.624C49.7139 13.624 48.958 14.3887 48.958 15.7158V25.1992C48.958 26.1484 49.4766 26.6934 50.3818 26.6934ZM70.0781 26.6934C71.0977 26.6934 71.6865 26.0869 71.6865 25.0146V22.1406L75.4219 16.2432C75.6592 15.874 75.7646 15.5137 75.7646 15.127C75.7646 14.2656 75.0879 13.624 74.1738 13.624C73.5322 13.624 73.1104 13.9141 72.6973 14.6523L70.1396 19.0908H70.0781L67.5205 14.6523C67.0898 13.8789 66.7119 13.624 66.0088 13.624C65.0684 13.624 64.3828 14.2656 64.3828 15.1533C64.3828 15.5225 64.4883 15.8916 64.7168 16.252L68.4609 22.1406V25.0146C68.4609 26.0869 69.0498 26.6934 70.0781 26.6934ZM82.3916 26.6934C83.4111 26.6934 84 26.0869 84 25.0146V21.7715H87.7266C88.5615 21.7715 89.0713 21.3145 89.0713 20.541C89.0713 19.7588 88.5439 19.3018 87.7266 19.3018H84V16.4189H88.1396C88.9922 16.4189 89.5723 15.9443 89.5723 15.1182C89.5723 14.292 89.0098 13.8174 88.1396 13.8174H82.3916C81.3721 13.8174 80.7744 14.4326 80.7744 15.5049V25.0146C80.7744 26.0869 81.3721 26.6934 82.3916 26.6934ZM96.7441 26.7197C100.585 26.7197 103.002 24.2061 103.002 20.1631C103.002 16.1201 100.585 13.5977 96.7441 13.5977C92.9033 13.5977 90.4775 16.1201 90.4775 20.1631C90.4775 24.2061 92.8945 26.7197 96.7441 26.7197ZM96.7441 24.1006C94.9336 24.1006 93.7646 22.5713 93.7646 20.1631C93.7646 17.7461 94.9424 16.2168 96.7441 16.2168C98.5459 16.2168 99.7236 17.7461 99.7236 20.1631C99.7236 22.5713 98.5459 24.1006 96.7441 24.1006ZM110.49 26.7197C114.331 26.7197 116.748 24.2061 116.748 20.1631C116.748 16.1201 114.331 13.5977 110.49 13.5977C106.649 13.5977 104.224 16.1201 104.224 20.1631C104.224 24.2061 106.641 26.7197 110.49 26.7197ZM110.49 24.1006C108.68 24.1006 107.511 22.5713 107.511 20.1631C107.511 17.7461 108.688 16.2168 110.49 16.2168C112.292 16.2168 113.47 17.7461 113.47 20.1631C113.47 22.5713 112.292 24.1006 110.49 24.1006ZM119.938 26.5H123.472C127.295 26.5 129.554 24.1357 129.554 20.084C129.554 16.041 127.304 13.8174 123.472 13.8174H119.938C118.919 13.8174 118.321 14.4326 118.321 15.5049V24.8125C118.321 25.8848 118.919 26.5 119.938 26.5ZM121.547 23.8984V16.4189H123.05C125.089 16.4189 126.275 17.7109 126.275 20.0928C126.275 22.624 125.15 23.8984 123.05 23.8984H121.547ZM135.262 26.5H138.795C142.618 26.5 144.877 24.1357 144.877 20.084C144.877 16.041 142.627 13.8174 138.795 13.8174H135.262C134.242 13.8174 133.645 14.4326 133.645 15.5049V24.8125C133.645 25.8848 134.242 26.5 135.262 26.5ZM136.87 23.8984V16.4189H138.373C140.412 16.4189 141.599 17.7109 141.599 20.0928C141.599 22.624 140.474 23.8984 138.373 23.8984H136.87ZM148.779 26.6934C149.798 26.6934 150.387 26.0869 150.387 25.0146V15.3027C150.387 14.2305 149.798 13.624 148.779 13.624C147.759 13.624 147.161 14.2305 147.161 15.3027V25.0146C147.161 26.0869 147.759 26.6934 148.779 26.6934ZM154.297 26.6934C155.159 26.6934 155.642 26.2539 155.95 25.1816L156.38 23.8281H160.722L161.153 25.2344C161.434 26.2715 161.918 26.6934 162.849 26.6934C163.79 26.6934 164.466 26.0518 164.466 25.1465C164.466 24.8125 164.405 24.5137 164.255 24.1006L161.1 15.5049C160.617 14.1865 159.843 13.624 158.516 13.624C157.259 13.624 156.477 14.2129 156.011 15.5049L152.882 24.1006C152.742 24.4873 152.654 24.8828 152.654 25.1553C152.654 26.1133 153.278 26.6934 154.297 26.6934ZM157.022 21.3936L158.463 16.5068H158.534L160.019 21.3936H157.022ZM168.359 26.7021C169.379 26.7021 169.968 26.0869 169.968 25.0234V22.0615H171.813L173.694 25.4453C174.239 26.4297 174.573 26.7021 175.355 26.7021C176.296 26.7021 176.964 26.0869 176.964 25.2344C176.964 24.8564 176.902 24.5928 176.621 24.127L175.065 21.4814C176.357 20.8311 177.043 19.4951 177.043 18.001C177.043 15.3818 175.338 13.8174 172.174 13.8174H168.359C167.34 13.8174 166.742 14.4326 166.742 15.5049V25.0234C166.742 26.0869 167.34 26.7021 168.359 26.7021ZM169.968 19.8555V16.252H171.848C173 16.252 173.747 16.9814 173.747 18.0625C173.747 19.1611 173.044 19.8555 171.857 19.8555H169.968ZM184.258 26.6934C185.277 26.6934 185.866 26.0869 185.866 25.0146V22.1406L189.602 16.2432C189.839 15.874 189.944 15.5137 189.944 15.127C189.944 14.2656 189.268 13.624 188.354 13.624C187.712 13.624 187.29 13.9141 186.877 14.6523L184.319 19.0908H184.258L181.7 14.6523C181.27 13.8789 180.892 13.624 180.189 13.624C179.248 13.624 178.563 14.2656 178.563 15.1533C178.563 15.5225 178.668 15.8916 178.897 16.252L182.641 22.1406V25.0146C182.641 26.0869 183.23 26.6934 184.258 26.6934Z" fill="#019852"/>
</svg>
