<svg width="20" height="20" viewBox="0 0 20 20" fill="none" xmlns="http://www.w3.org/2000/svg">
<mask id="mask0_563_19" style="mask-type:alpha" maskUnits="userSpaceOnUse" x="0" y="0" width="20" height="20">
<rect width="20" height="20" fill="#D9D9D9"/>
</mask>
<g mask="url(#mask0_563_19)">
<path d="M10 18.3334C8.84724 18.3334 7.76391 18.1147 6.75002 17.6772C5.73613 17.2397 4.85419 16.6459 4.10419 15.8959C3.35419 15.1459 2.76044 14.264 2.32294 13.2501C1.88544 12.2362 1.66669 11.1529 1.66669 10.0001C1.66669 8.8473 1.88544 7.76397 2.32294 6.75008C2.76044 5.73619 3.35419 4.85425 4.10419 4.10425C4.85419 3.35425 5.73613 2.7605 6.75002 2.323C7.76391 1.8855 8.84724 1.66675 10 1.66675C11.1528 1.66675 12.2361 1.8855 13.25 2.323C14.2639 2.7605 15.1459 3.35425 15.8959 4.10425C16.6459 4.85425 17.2396 5.73619 17.6771 6.75008C18.1146 7.76397 18.3334 8.8473 18.3334 10.0001C18.3334 11.1529 18.1146 12.2362 17.6771 13.2501C17.2396 14.264 16.6459 15.1459 15.8959 15.8959C15.1459 16.6459 14.2639 17.2397 13.25 17.6772C12.2361 18.1147 11.1528 18.3334 10 18.3334ZM10 16.6667C11.8611 16.6667 13.4375 16.0209 14.7292 14.7292C16.0209 13.4376 16.6667 11.8612 16.6667 10.0001C16.6667 9.25008 16.5452 8.52786 16.3021 7.83341C16.059 7.13897 15.7084 6.50008 15.25 5.91675L5.91669 15.2501C6.50002 15.7084 7.13891 16.0591 7.83335 16.3022C8.5278 16.5452 9.25002 16.6667 10 16.6667ZM4.75002 14.0834L14.0834 4.75008C13.5 4.29175 12.8611 3.94105 12.1667 3.698C11.4722 3.45494 10.75 3.33341 10 3.33341C8.13891 3.33341 6.56252 3.97925 5.27085 5.27091C3.97919 6.56258 3.33335 8.13897 3.33335 10.0001C3.33335 10.7501 3.45488 11.4723 3.69794 12.1667C3.94099 12.8612 4.29169 13.5001 4.75002 14.0834Z" fill="#E45C5C"/>
</g>
</svg>
